<svg version="1.2" baseProfile="tiny-ps" xmlns="http://www.w3.org/2000/svg" viewBox="0 0 580 69" width="580" height="69"><title>xsdata-attrs-logo</title><style>tspan { white-space:pre }</style><path fill="#1d73c9" aria-label="&lt;/&gt;xsdata:attrs"  d="M25.08 43.19L25.08 43.19Q26.09 44.1 26.24 45.06Q26.43 45.97 25.95 46.67Q25.52 47.37 24.55 47.74Q23.58 48.07 22.43 47.8Q17.31 45.01 12.29 42.22Q7.32 39.43 2.2 36.59Q0.51 35.57 0.51 34.17Q0.51 32.78 2.2 31.76L22.23 21.78Q23.39 21.52 24.36 21.89Q25.32 22.21 25.76 22.91Q26.24 23.61 26.05 24.57Q25.9 25.49 24.84 26.4L9.05 34.28L25.08 43.19ZM34.38 46.03L45 15.83Q45.29 14.92 46.26 14.49Q47.27 14.06 48.53 14.54Q49.68 14.97 50.12 15.99Q50.55 16.96 50.26 17.87L39.64 48.07Q39.35 48.98 38.39 49.46Q37.47 49.89 36.26 49.46Q35.06 48.98 34.57 47.96Q34.09 46.94 34.38 46.03ZM60 26.4Q58.74 25.32 58.74 24.09Q58.74 23.5 58.98 23.02Q59.27 22.48 59.71 22.16Q60.19 21.78 60.77 21.68Q61.4 21.57 62.12 21.78Q67.34 24.57 72.5 27.36Q77.67 30.15 82.83 32.99Q84.47 34.01 84.47 35.41Q84.47 36.05 84.04 36.7Q83.65 37.34 82.83 37.82L62.36 47.8Q61.64 48.01 61.01 47.91Q60.43 47.8 59.95 47.48Q59.47 47.1 59.18 46.62Q58.94 46.08 58.94 45.49Q58.94 44.26 60.19 43.19L76.02 35.3Q67.96 30.9 60 26.4Z" /><path fill="#05101b" aria-label="&lt;/&gt;xsdata:attrs"  d="M137.88 67L123.21 67L114.57 52.7L106.92 67L92.61 67L107.37 41L92.79 17L107.46 17L115.92 31L123.39 17L137.7 17L123.12 42.7L137.88 67ZM143.19 31.4Q143.19 23.2 147.6 19.4Q152.1 15.5 161.73 15.5Q171 15.5 178.83 17.7L177.21 28.2Q172.26 26.7 166.41 26.7Q161.28 26.7 157.5 27.7L157.5 35.5Q167.04 36.8 171.99 38.7Q177.03 40.5 179.01 43.7Q181.08 46.8 181.08 52.2Q181.08 60.9 176.22 64.7Q171.36 68.5 160.38 68.5Q150.93 68.5 142.38 65.4L144.18 54.2Q150.84 57.3 158.76 57.3Q162.45 57.3 166.77 56.2L166.77 48.2Q156.51 46.8 151.65 45.1Q146.79 43.4 144.99 40.4Q143.19 37.3 143.19 31.4ZM216.9 1.2L230.31 -0.1L230.31 67L223.83 67L221.22 62.5Q219.06 65.7 215.55 67.1Q212.13 68.5 206.73 68.5Q199.71 68.5 195.75 66.1Q191.88 63.6 190.08 57.9Q188.37 52.2 188.37 42Q188.37 32.1 189.99 26.5Q191.7 20.8 195.48 18.3Q199.26 15.8 205.83 15.8Q212.94 15.8 216.9 17.8L216.9 1.2ZM213.12 57Q215.37 57 216.09 56.5Q216.9 55.9 216.9 54.3L216.9 27.3L206.55 27.3Q204.3 27.3 203.49 27.9Q202.68 28.4 202.68 29.9L202.68 57L213.12 57ZM262.17 15.8Q272.07 15.8 276.39 19.5Q280.71 23.1 280.71 31.5L280.71 67L274.23 67L270.72 62Q264.06 68.2 255.06 68.2Q247.23 68.2 243.72 64.5Q240.3 60.7 240.3 52.3Q240.3 45.6 242.37 42.2Q244.44 38.8 249.66 37.5Q254.88 36.1 265.32 36.1L267.3 36.1L267.3 27.7Q265.05 26.9 260.46 26.9Q252.72 26.9 243.99 29.4L242.28 19Q246.51 17.4 251.64 16.6Q256.86 15.8 262.17 15.8ZM260.55 57.7Q264.42 57.7 265.86 56.7Q267.3 55.7 267.3 52.9L267.3 44.3L259.38 44.3Q255.42 44.3 253.98 45.4Q252.63 46.4 252.63 49.3L252.63 57.7L260.55 57.7ZM315.72 26.8L308.61 26.8L308.61 56.2Q311.4 56.7 314.46 56.8L313.83 66.9Q308.07 68.2 304.29 68.2Q299.61 68.2 297.36 66Q295.2 63.8 295.2 59.1L295.2 26.8L289.8 26.8L289.8 17L295.2 17L295.2 7.6L308.61 3.9L308.61 17L315.72 17L315.72 26.8ZM344.43 15.8Q354.33 15.8 358.65 19.5Q362.97 23.1 362.97 31.5L362.97 67L356.49 67L352.98 62Q346.32 68.2 337.32 68.2Q329.49 68.2 325.98 64.5Q322.56 60.7 322.56 52.3Q322.56 45.6 324.63 42.2Q326.7 38.8 331.92 37.5Q337.14 36.1 347.58 36.1L349.56 36.1L349.56 27.7Q347.31 26.9 342.72 26.9Q334.98 26.9 326.25 29.4L324.54 19Q328.77 17.4 333.9 16.6Q339.12 15.8 344.43 15.8ZM342.81 57.7Q346.68 57.7 348.12 56.7Q349.56 55.7 349.56 52.9L349.56 44.3L341.64 44.3Q337.68 44.3 336.24 45.4Q334.89 46.4 334.89 49.3L334.89 57.7L342.81 57.7ZM372.51 59Q372.51 54.1 374.04 52.2Q375.66 50.2 380.34 50.2Q384.93 50.2 386.46 52.2Q388.08 54.1 388.08 59Q388.08 63.8 386.46 65.7Q384.93 67.6 380.34 67.6Q375.66 67.6 374.04 65.7Q372.51 63.8 372.51 59ZM372.51 25.3Q372.51 20.4 374.04 18.5Q375.66 16.5 380.34 16.5Q384.93 16.5 386.46 18.5Q388.08 20.4 388.08 25.3Q388.08 30.1 386.46 32Q384.93 33.9 380.34 33.9Q375.66 33.9 374.04 32Q372.51 30.1 372.51 25.3ZM416.7 15.8Q426.6 15.8 430.92 19.5Q435.24 23.1 435.24 31.5L435.24 67L428.76 67L425.25 62Q418.59 68.2 409.59 68.2Q401.76 68.2 398.25 64.5Q394.83 60.7 394.83 52.3Q394.83 45.6 396.9 42.2Q398.97 38.8 404.19 37.5Q409.41 36.1 419.85 36.1L421.83 36.1L421.83 27.7Q419.58 26.9 414.99 26.9Q407.25 26.9 398.52 29.4L396.81 19Q401.04 17.4 406.17 16.6Q411.39 15.8 416.7 15.8ZM415.08 57.7Q418.95 57.7 420.39 56.7Q421.83 55.7 421.83 52.9L421.83 44.3L413.91 44.3Q409.95 44.3 408.51 45.4Q407.16 46.4 407.16 49.3L407.16 57.7L415.08 57.7ZM470.25 26.8L463.14 26.8L463.14 56.2Q465.93 56.7 468.99 56.8L468.36 66.9Q462.6 68.2 458.82 68.2Q454.14 68.2 451.89 66Q449.73 63.8 449.73 59.1L449.73 26.8L444.33 26.8L444.33 17L449.73 17L449.73 7.6L463.14 3.9L463.14 17L470.25 17L470.25 26.8ZM502.56 26.8L495.45 26.8L495.45 56.2Q498.24 56.7 501.3 56.8L500.67 66.9Q494.91 68.2 491.13 68.2Q486.45 68.2 484.2 66Q482.04 63.8 482.04 59.1L482.04 26.8L476.64 26.8L476.64 17L482.04 17L482.04 7.6L495.45 3.9L495.45 17L502.56 17L502.56 26.8ZM518.67 17L522.72 24.3Q529.02 17.5 535.5 15.5L536.49 30Q533.97 30.6 530.64 32.2Q527.31 33.7 525.51 35.2L525.51 67L512.1 67L512.1 17L518.67 17ZM541.44 31.4Q541.44 23.2 545.85 19.4Q550.35 15.5 559.98 15.5Q569.25 15.5 577.08 17.7L575.46 28.2Q570.51 26.7 564.66 26.7Q559.53 26.7 555.75 27.7L555.75 35.5Q565.29 36.8 570.24 38.7Q575.28 40.5 577.26 43.7Q579.33 46.8 579.33 52.2Q579.33 60.9 574.47 64.7Q569.61 68.5 558.63 68.5Q549.18 68.5 540.63 65.4L542.43 54.2Q549.09 57.3 557.01 57.3Q560.7 57.3 565.02 56.2L565.02 48.2Q554.76 46.8 549.9 45.1Q545.04 43.4 543.24 40.4Q541.44 37.3 541.44 31.4Z" /></svg>
